<svg width="120" height="121" viewBox="0 0 120 121" fill="none" xmlns="http://www.w3.org/2000/svg">
<path d="M26.625 59.9375C26.25 59.9375 26.0625 60.125 26.0625 60.5C26.0625 60.875 26.25 61.0625 26.625 61.0625C27 61.0625 27.1875 60.875 27.1875 60.5C27.1875 60.125 27 59.9375 26.625 59.9375Z" fill="#B3749A"/>
<path d="M20.625 47.1875C20.8125 47.1875 21.1875 47.375 21.1875 47.5625C21.375 47.75 21.375 47.9375 21.5625 48.3125C21.5625 47.9375 21.75 47.75 21.9375 47.5625C22.125 47.375 22.3125 47.375 22.6875 47.1875C22.5 47.1875 22.3125 47 22.125 46.8125C21.9375 46.625 21.75 46.25 21.75 45.875C21.5625 46.4375 21.5625 46.625 21.375 46.8125C21 47 20.8125 47.1875 20.625 47.1875Z" fill="#B3749A"/>
<path d="M89.8125 101.937H47.25C44.0625 101.937 41.4375 99.3125 41.4375 96.125C41.4375 95.9375 41.625 95.5625 41.8125 95.5625C42 95.5625 42.1875 95.75 42.1875 95.9375C42.1875 98.75 44.4375 100.812 47.0625 100.812H89.625C92.25 100.812 94.5 98.5625 94.5 95.9375V30.3125C94.5 27.6875 92.25 25.4375 89.625 25.4375H89.25C89.0625 25.4375 88.875 25.25 88.875 25.0625C88.875 24.875 89.0625 24.6875 89.25 24.6875H89.625C92.8125 24.6875 95.4375 27.3125 95.4375 30.5V96.125C95.625 99.3125 93 101.937 89.8125 101.937Z" fill="#F2E8EE"/>
<path d="M84.5625 96.5H41.0625C38.0625 96.5 35.8125 94.0625 35.8125 91.25V30.3125L38.0625 27.875C40.6875 25.0625 42.9375 23 46.6875 19.25L46.875 19.0625H84.75C87.75 19.0625 90 21.5 90 24.3125V91.0625C90 94.0625 87.5625 96.5 84.5625 96.5ZM36.5625 30.6875V91.25C36.5625 93.6875 38.625 95.5625 40.875 95.5625H84.375C86.8125 95.5625 88.6875 93.5 88.6875 91.25V24.5C88.6875 22.0625 86.625 20.1875 84.375 20.1875H46.875C43.125 23.75 41.0625 26 38.4375 28.625L36.5625 30.6875Z" fill="#F2E8EE"/>
<path d="M46.875 30.875L36.75 30.6875L36.375 29.9375L46.6875 19.4375L47.4375 19.8125L47.25 30.5L46.875 30.875ZM37.875 29.75L46.3125 29.9375L46.5 20.9375L37.875 29.75Z" fill="#F2E8EE"/>
<path d="M79.125 39.875L79.875 38.5625L78.5625 39.3125L78.1875 38L78 39.3125L76.6875 38.5625L77.4375 39.875L76.125 40.25L77.4375 40.4375L76.6875 41.75L78 41L78.1875 42.3125L78.5625 41L79.875 41.75L79.125 40.4375L80.4375 40.25L79.125 39.875Z" fill="#B3749A"/>
<path d="M47.0625 61.25C47.4767 61.25 47.8125 60.9142 47.8125 60.5C47.8125 60.0858 47.4767 59.75 47.0625 59.75C46.6483 59.75 46.3125 60.0858 46.3125 60.5C46.3125 60.9142 46.6483 61.25 47.0625 61.25Z" fill="#B3749A"/>
<path d="M44.25 79.8125C45.5625 83.9375 49.875 86.375 54.1875 85.4375C58.6875 84.3125 61.5 79.8125 60.375 75.3125C60 73.4375 58.875 71.75 57.375 70.625C57.375 70.8125 57.5625 71 57.5625 71.1875C58.6875 75.6875 55.875 80.1875 51.375 81.3125C48.9375 82.0625 46.3125 81.3125 44.25 79.8125Z" fill="#F2E8EE"/>
<path d="M67.875 63.6875C66.375 63.6875 64.875 63.3125 63.5625 62.375C61.875 61.25 60.5625 59.5625 60.1875 57.5C59.8125 55.4375 60.1875 53.375 61.3125 51.6875C62.4375 50 64.125 48.6875 66.1875 48.3125C68.25 47.9375 70.3125 48.3125 72 49.4375C73.6875 50.5625 75 52.25 75.375 54.3125C75.75 56.375 75.375 58.4375 74.25 60.125C73.125 61.8125 71.4375 63.125 69.375 63.5C69 63.6875 68.4375 63.6875 67.875 63.6875ZM67.875 49.0625C67.3125 49.0625 66.9375 49.0625 66.375 49.25C64.5 49.625 63 50.75 62.0625 52.25C61.125 53.75 60.75 55.625 61.125 57.3125C61.5 59.1875 62.625 60.6875 64.125 61.625C65.625 62.5625 67.5 62.9375 69.1875 62.5625C71.0625 62.1875 72.5625 61.0625 73.5 59.5625C74.4375 58.0625 74.8125 56.1875 74.4375 54.5C74.0625 52.625 72.9375 51.125 71.4375 50.1875C70.5 49.4375 69.1875 49.0625 67.875 49.0625Z" fill="#B3749A"/>
<path d="M81.9375 61.4375C81.1875 61.4375 80.25 61.4375 78.9375 61.25C75.75 60.875 71.625 59.9375 67.125 58.8125C66.375 58.625 50.4375 54.3125 51.1875 51.5C51.5625 49.8125 58.125 50.75 61.875 51.5C62.0625 51.5 62.25 51.875 62.25 52.0625C62.25 52.25 61.875 52.4375 61.6875 52.4375C55.6875 51.3125 52.5 51.3125 52.125 51.6875C52.3125 52.4375 57.75 55.25 67.5 57.875C77.0625 60.5 83.25 60.875 83.8125 60.3125C83.625 59.9375 81.1875 58.4375 75.1875 56.1875C75 56.1875 74.8125 55.8125 74.8125 55.625C74.8125 55.4375 75.1875 55.25 75.375 55.25C81.75 57.5 84.9375 59.375 84.5625 60.5C84.5625 60.875 84 61.4375 81.9375 61.4375Z" fill="#B3749A"/>
<path d="M51.75 35.5625C49.5 35.5625 47.8125 37.25 47.8125 39.5C47.8125 41.75 49.6875 43.4375 51.75 43.4375C54 43.4375 55.6875 41.75 55.6875 39.5C55.6875 37.25 53.8125 35.5625 51.75 35.5625ZM49.875 41.1875C49.6875 41.1875 49.5 41 49.5 40.8125C49.5 40.625 49.6875 40.4375 49.875 40.4375C50.0625 40.4375 50.25 40.625 50.25 40.8125C50.25 41 50.0625 41.1875 49.875 41.1875ZM50.8125 38.5625C50.625 38.5625 50.625 38.375 50.625 38.375C50.625 38.1875 50.8125 38.1875 50.8125 38.1875C51 38.1875 51 38.375 51 38.375C51.1875 38.375 51 38.5625 50.8125 38.5625ZM52.5 40.625C52.125 40.625 51.9375 40.4375 51.9375 40.0625C51.9375 39.875 52.125 39.5 52.5 39.5C52.875 39.5 53.0625 39.6875 53.0625 40.0625C53.0625 40.4375 52.875 40.625 52.5 40.625Z" fill="#F2E8EE"/>
<path d="M99 68.375C98.625 68.375 98.4375 68.5625 98.4375 68.9375C98.4375 69.3125 98.625 69.5 99 69.5C99.375 69.5 99.5625 69.3125 99.5625 68.9375C99.375 68.5625 99.1875 68.375 99 68.375Z" fill="#B3749A"/>
<path d="M66.375 78.5C66.75 78.6875 67.125 78.875 67.3125 79.0625C67.5 79.25 67.6875 79.8125 67.875 80.1875C68.0625 79.625 68.25 79.25 68.4375 79.0625C68.625 78.875 69 78.6875 69.5625 78.5C69.1875 78.3125 68.8125 78.3125 68.625 77.9375C68.25 77.75 68.0625 77 68.0625 76.4375C67.875 77.1875 67.6875 77.75 67.3125 77.9375C67.125 78.125 66.75 78.3125 66.375 78.5Z" fill="#B3749A"/>
</svg>
