<svg width="124" height="124" viewBox="0 0 124 124" fill="none" xmlns="http://www.w3.org/2000/svg">
<path d="M36.1729 15.5001C36.3467 15.5536 36.5058 15.6464 36.6379 15.7714C36.7283 15.9263 36.7875 16.0974 36.8122 16.2751C36.8533 16.0714 36.9393 15.8794 37.0641 15.7132C37.2391 15.599 37.4379 15.5261 37.6454 15.5001C37.4793 15.4623 37.3257 15.3822 37.1997 15.2676C37.0399 15.0593 36.9394 14.8116 36.9091 14.5507C36.8694 14.8371 36.7483 15.1061 36.5604 15.3257C36.4448 15.4102 36.3128 15.4696 36.1729 15.5001Z" fill="#B3749A"/>
<path d="M93.5222 22.7863C93.4205 22.7848 93.3217 22.7525 93.2387 22.6937C93.1557 22.6349 93.0924 22.5524 93.0572 22.4569C93.0328 22.3974 93.021 22.3334 93.0226 22.2691C93.0242 22.2047 93.0391 22.1414 93.0664 22.0831C93.0937 22.0249 93.1329 21.9729 93.1813 21.9305C93.2298 21.8881 93.2865 21.8563 93.3479 21.8369L99.5672 19.6476C99.6906 19.6101 99.8237 19.6213 99.939 19.679C100.054 19.7366 100.143 19.8364 100.187 19.9576C100.212 20.0158 100.223 20.0785 100.221 20.1415C100.22 20.2046 100.205 20.2665 100.177 20.3233C100.15 20.3801 100.11 20.4304 100.062 20.4709C100.014 20.5114 99.9573 20.5411 99.8966 20.5582L93.6772 22.7476L93.5222 22.7863Z" fill="#B3749A"/>
<path d="M91.2363 19.6872C91.1707 19.6863 91.1059 19.6722 91.046 19.6455C90.986 19.6189 90.9321 19.5803 90.8875 19.5322C90.8412 19.4887 90.8042 19.4362 90.779 19.3779C90.7537 19.3196 90.7407 19.2567 90.7407 19.1932C90.7407 19.1296 90.7537 19.0667 90.779 19.0084C90.8042 18.9501 90.8412 18.8976 90.8875 18.8541L93.1931 16.6841C93.2383 16.6372 93.2925 16.5999 93.3524 16.5745C93.4123 16.549 93.4768 16.5359 93.5419 16.5359C93.607 16.5359 93.6714 16.549 93.7314 16.5745C93.7913 16.5999 93.8454 16.6372 93.8906 16.6841C93.9794 16.7746 94.0291 16.8964 94.0291 17.0232C94.0291 17.1499 93.9794 17.2717 93.8906 17.3622L91.5656 19.5128C91.5266 19.564 91.4769 19.606 91.42 19.6361C91.3632 19.6662 91.3005 19.6836 91.2363 19.6872Z" fill="#B3749A"/>
<path d="M88.8343 17.5543C88.7522 17.5797 88.6645 17.5797 88.5824 17.5543C88.4757 17.4865 88.3997 17.3796 88.3708 17.2565C88.3418 17.1334 88.3621 17.0039 88.4274 16.8956L91.4887 11.955C91.5055 11.887 91.5369 11.8236 91.5807 11.7689C91.6244 11.7143 91.6795 11.6698 91.7421 11.6385C91.8047 11.6072 91.8734 11.5898 91.9434 11.5876C92.0133 11.5854 92.0829 11.5983 92.1474 11.6256C92.2587 11.694 92.3391 11.8029 92.3717 11.9294C92.4042 12.0559 92.3863 12.1901 92.3218 12.3037L89.2605 17.3218C89.2162 17.3947 89.1535 17.4545 89.0786 17.4954C89.0038 17.5362 88.9195 17.5565 88.8343 17.5543Z" fill="#B3749A"/>
<path d="M66.9596 62.0006C64.1502 62.0006 58.8608 59.4818 54.0558 56.3431C47.8171 52.2743 42.2371 47.0624 43.6321 44.9312C45.0271 42.7999 52.0408 45.8224 58.2796 49.8718C64.5183 53.9212 70.0789 59.1718 68.7033 61.3031C68.4956 61.5576 68.2266 61.7552 67.9216 61.8772C67.6166 61.9992 67.2855 62.0417 66.9596 62.0006ZM45.3177 45.1443C44.8527 45.1443 44.5621 45.2412 44.4458 45.4156C43.7871 46.4037 47.4296 50.8212 54.5789 55.4906C61.7283 60.1599 67.2502 61.7099 67.8896 60.7218C68.5289 59.7337 65.0027 55.3937 57.7371 50.6468C51.9633 46.8687 47.2358 45.1443 45.3177 45.1443Z" fill="#F2E8EE"/>
<path d="M68.3935 64.3641C64.6154 64.3641 58.3573 61.5741 52.8935 58.0285C49.2966 55.7406 46.0361 52.9627 43.206 49.7747C40.6873 46.8879 39.9123 44.5629 40.8229 43.2066C42.8767 40.0485 51.8667 43.4779 59.2679 48.3216C62.8648 50.6094 66.1254 53.3874 68.9554 56.5754C71.3967 59.4622 72.2104 61.7485 71.2998 63.1435C70.9537 63.571 70.5072 63.9062 70.0001 64.1191C69.493 64.3321 68.9411 64.4163 68.3935 64.3641ZM43.7485 43.0516C43.3633 42.9955 42.9701 43.0332 42.6025 43.1614C42.2349 43.2895 41.9036 43.5044 41.6367 43.7879C40.9973 44.7566 41.8498 46.7716 43.9035 49.2129C46.6961 52.3318 49.9112 55.0447 53.4554 57.2729C61.9804 62.8335 69.3041 64.5966 70.5635 62.6785C71.1835 61.7097 70.3504 59.6754 68.2967 57.2535C65.5041 54.1346 62.289 51.4216 58.7448 49.1935C52.4285 45.0085 46.771 42.9935 43.7485 42.9935V43.0516Z" fill="#F2E8EE"/>
<path d="M66.8824 67.097C64.5186 67.097 59.6749 66.2639 52.0799 61.2845C51.5761 60.9358 39.583 52.9726 38.6724 46.6951V46.5014L40.8424 43.2464C40.8776 43.1925 40.9232 43.1461 40.9765 43.11C41.0298 43.0739 41.0898 43.0488 41.153 43.0362C41.2161 43.0236 41.2811 43.0237 41.3442 43.0365C41.4073 43.0493 41.4673 43.0745 41.5205 43.1108C41.624 43.1816 41.696 43.2899 41.7213 43.4128C41.7466 43.5356 41.7232 43.6635 41.6561 43.7695L39.7186 46.7339C40.7842 52.5464 52.5449 60.2964 52.6611 60.4708C62.3486 66.8451 67.328 66.2833 68.1611 66.0508L70.6799 62.4276C70.7166 62.3753 70.7633 62.3307 70.8173 62.2964C70.8714 62.2622 70.9317 62.239 70.9947 62.2282C71.0578 62.2174 71.1223 62.2192 71.1847 62.2334C71.247 62.2477 71.3059 62.2742 71.358 62.3114C71.4126 62.3462 71.4593 62.3921 71.4951 62.4461C71.531 62.5 71.5551 62.5609 71.5661 62.6247C71.577 62.6886 71.5745 62.754 71.5587 62.8168C71.5429 62.8796 71.5141 62.9385 71.4742 62.9895L68.7617 66.8645H68.6067C68.0456 67.0222 67.4652 67.1004 66.8824 67.097Z" fill="#F2E8EE"/>
<path d="M66.2044 67.0763C66.1289 67.1014 66.0473 67.1014 65.9719 67.0763C65.9154 67.0462 65.8658 67.0048 65.8261 66.9547C65.7864 66.9046 65.7574 66.8468 65.7411 66.785C65.7247 66.7231 65.7213 66.6586 65.731 66.5954C65.7407 66.5322 65.7633 66.4716 65.7975 66.4176L67.3862 63.6663C67.4142 63.6046 67.4547 63.5494 67.5053 63.5043C67.5559 63.4592 67.6154 63.4252 67.6799 63.4045C67.7445 63.3838 67.8127 63.377 67.88 63.3843C67.9474 63.3916 68.0125 63.413 68.0711 63.4471C68.1297 63.4811 68.1805 63.5271 68.2202 63.582C68.2599 63.637 68.2876 63.6996 68.3016 63.7659C68.3156 63.8322 68.3155 63.9008 68.3013 63.967C68.2871 64.0333 68.2592 64.0959 68.2194 64.1507L66.6306 66.902C66.5785 66.9628 66.5127 67.0104 66.4386 67.0407C66.3645 67.071 66.2842 67.0832 66.2044 67.0763Z" fill="#F2E8EE"/>
<path d="M40.2422 49.9306H40.1066C39.9832 49.8946 39.8793 49.8111 39.8175 49.6985C39.7557 49.5859 39.7412 49.4533 39.7772 49.33C40.2254 48.4315 40.844 47.6287 41.5984 46.9662C41.6935 46.8789 41.8194 46.8328 41.9484 46.8383C42.0774 46.8437 42.1989 46.9002 42.2863 46.9953C42.3736 47.0903 42.4196 47.2162 42.4142 47.3452C42.4087 47.4742 42.3523 47.5957 42.2572 47.6831C41.6186 48.2212 41.092 48.8795 40.7072 49.6206C40.6712 49.714 40.6072 49.7939 40.5239 49.8494C40.4406 49.9049 40.3422 49.9333 40.2422 49.9306Z" fill="#F2E8EE"/>
<path d="M41.4039 51.634C41.3406 51.6523 41.2734 51.6523 41.2101 51.634C41.1515 51.6087 41.0984 51.572 41.054 51.5262C41.0095 51.4803 40.9746 51.4261 40.9512 51.3667C40.9278 51.3072 40.9164 51.2438 40.9176 51.1799C40.9188 51.1161 40.9326 51.0531 40.9583 50.9946C41.446 50.1318 42.0453 49.337 42.7408 48.6308C42.8313 48.5421 42.953 48.4924 43.0798 48.4924C43.2066 48.4924 43.3284 48.5421 43.4189 48.6308C43.4652 48.6743 43.5022 48.7268 43.5274 48.7852C43.5527 48.8435 43.5657 48.9063 43.5657 48.9699C43.5657 49.0334 43.5527 49.0963 43.5274 49.1546C43.5022 49.2129 43.4652 49.2655 43.4189 49.309C42.8014 49.9351 42.2674 50.6385 41.8301 51.4015C41.7874 51.4757 41.725 51.5367 41.6498 51.5778C41.5746 51.6188 41.4895 51.6382 41.4039 51.634Z" fill="#F2E8EE"/>
<path d="M42.8187 53.3214C42.7491 53.3413 42.6752 53.3413 42.6056 53.3214C42.5468 53.2964 42.4938 53.2597 42.4499 53.2134C42.406 53.1671 42.3721 53.1122 42.3503 53.0522C42.3285 52.9923 42.3192 52.9284 42.3231 52.8647C42.3271 52.801 42.3441 52.7388 42.3731 52.682C42.807 51.7575 43.4193 50.9278 44.1749 50.2407C44.2168 50.1917 44.2688 50.1523 44.3273 50.1253C44.3858 50.0983 44.4495 50.0843 44.514 50.0843C44.5785 50.0843 44.6422 50.0983 44.7007 50.1253C44.7593 50.1523 44.8112 50.1917 44.8531 50.2407C44.9418 50.3313 44.9915 50.453 44.9915 50.5798C44.9915 50.7066 44.9418 50.8283 44.8531 50.9189C44.1952 51.527 43.6622 52.2575 43.2837 53.0695C43.2409 53.1537 43.1736 53.223 43.0905 53.268C43.0074 53.313 42.9126 53.3316 42.8187 53.3214Z" fill="#F2E8EE"/>
<path d="M49.8222 33.3689L49.8843 32.9961L49.5427 32.8346C43.8707 30.1537 39.2841 31.3842 36.138 33.3056C34.6885 34.1908 33.5469 35.2202 32.7408 36.0736C33.5445 33.4254 34.8114 31.6003 36.288 30.3535C38.1393 28.7901 40.3666 28.0968 42.5422 27.8772C44.7195 27.6575 46.821 27.9151 48.3855 28.2316C49.166 28.3895 49.8084 28.5611 50.2542 28.6927C50.477 28.7584 50.6504 28.8142 50.7671 28.853C50.8254 28.8725 50.8696 28.8877 50.8986 28.8979L50.9306 28.9092L50.9379 28.9118L50.9393 28.9123L50.9393 28.9124L50.9395 28.9124L51.4312 29.0928L51.5884 28.593L52.1417 26.8347L56.4205 33.4271L49.5042 35.2768L49.8222 33.3689Z" stroke="#B3749A"/>
<path d="M95.79 44.563C95.7899 44.6523 95.824 44.7382 95.8852 44.803C95.9465 44.8679 96.0303 44.9068 96.1194 44.9118C96.2119 44.9118 96.3006 44.8751 96.366 44.8097C96.4314 44.7442 96.4682 44.6555 96.4682 44.563C96.4632 44.474 96.4243 44.3901 96.3594 44.3289C96.2945 44.2676 96.2087 44.2335 96.1194 44.2337C96.0336 44.2383 95.9525 44.2745 95.8917 44.3353C95.8309 44.3961 95.7947 44.4772 95.79 44.563Z" fill="#B3749A"/>
<path d="M24.2578 29.9151C24.2578 30.0076 24.2946 30.0963 24.36 30.1617C24.4254 30.2271 24.5141 30.2639 24.6066 30.2639C24.6991 30.2639 24.7878 30.2271 24.8532 30.1617C24.9186 30.0963 24.9553 30.0076 24.9553 29.9151C24.9553 29.8693 24.9463 29.824 24.9288 29.7816C24.9112 29.7393 24.8855 29.7009 24.8532 29.6685C24.8208 29.6361 24.7823 29.6104 24.74 29.5929C24.6977 29.5754 24.6524 29.5664 24.6066 29.5664C24.5608 29.5664 24.5154 29.5754 24.4731 29.5929C24.4308 29.6104 24.3923 29.6361 24.36 29.6685C24.3276 29.7009 24.3019 29.7393 24.2844 29.7816C24.2668 29.824 24.2578 29.8693 24.2578 29.9151Z" fill="#B3749A"/>
<path d="M33.7314 12.421C33.7314 12.5649 33.7886 12.7029 33.8903 12.8046C33.9921 12.9064 34.1301 12.9635 34.2739 12.9635C34.3505 12.9751 34.4287 12.9695 34.5028 12.9472C34.577 12.9249 34.6452 12.8864 34.7027 12.8345C34.7602 12.7826 34.8054 12.7186 34.8351 12.6471C34.8648 12.5756 34.8783 12.4983 34.8746 12.421C34.8746 12.2771 34.8174 12.1391 34.7157 12.0374C34.6139 11.9357 34.4759 11.8785 34.3321 11.8785C34.2567 11.8733 34.181 11.8833 34.1096 11.9079C34.0382 11.9326 33.9725 11.9714 33.9164 12.0221C33.8603 12.0727 33.8151 12.1341 33.7833 12.2027C33.7515 12.2712 33.7339 12.3455 33.7314 12.421Z" fill="#B3749A"/>
<path d="M27.125 68.5103C27.3829 68.5553 27.6239 68.6691 27.8225 68.8397C28 69.0984 28.1068 69.3989 28.1325 69.7116C28.1639 69.4002 28.2703 69.101 28.4425 68.8397C28.6507 68.6608 28.9066 68.5463 29.1788 68.5103C28.9332 68.4673 28.7011 68.3678 28.5006 68.2197C28.2962 67.9068 28.1761 67.5464 28.1519 67.1734C28.1263 67.5701 27.9923 67.9521 27.7644 68.2778C27.5801 68.4089 27.3678 68.4951 27.1444 68.5297L27.125 68.5103Z" fill="#B3749A"/>
<path d="M97.7855 40.5717C97.9153 40.5975 98.0358 40.6577 98.1342 40.7461C98.2259 40.8776 98.2795 41.0318 98.2892 41.1917C98.299 41.0318 98.3526 40.8776 98.4442 40.7461C98.5497 40.657 98.6766 40.5969 98.8124 40.5717C98.6942 40.5401 98.5827 40.4876 98.483 40.4167C98.3667 40.3199 98.328 40.0486 98.2892 39.8742C98.2892 39.8742 98.2892 40.3392 98.0955 40.4361C97.9974 40.5057 97.8848 40.552 97.7661 40.5717C97.7661 40.5717 97.7661 40.5717 97.7855 40.5717Z" fill="#B3749A"/>
<path d="M12.9613 47.0242C13.3173 47.0866 13.651 47.2401 13.93 47.4698C14.1693 47.8431 14.3155 48.2684 14.3563 48.7098C14.3912 48.27 14.5307 47.8449 14.7632 47.4698C15.0645 47.2248 15.4256 47.0643 15.8094 47.0048C15.8094 47.0048 15.8094 47.0048 15.8094 46.908C15.5029 46.8418 15.217 46.7021 14.9763 46.5011C14.6769 46.0583 14.5029 45.5428 14.4725 45.0092C14.4349 45.5714 14.2476 46.1132 13.93 46.5786C13.6675 46.7555 13.3703 46.8743 13.0582 46.9273C13.0582 46.9273 12.9032 47.0048 12.9613 47.0242Z" fill="#B3749A"/>
<path d="M108.849 56.4008C109.13 56.4386 109.393 56.5602 109.604 56.7495C109.799 57.0371 109.913 57.3717 109.934 57.7183C109.966 57.3741 110.079 57.0422 110.263 56.7495C110.499 56.5605 110.779 56.4339 111.077 56.3814C110.835 56.3064 110.616 56.1733 110.438 55.9939C110.212 55.6457 110.078 55.2456 110.05 54.8314C110.018 55.2627 109.871 55.6775 109.624 56.0327C109.423 56.1808 109.191 56.2803 108.946 56.3233C108.946 56.3233 108.81 56.3814 108.849 56.4008Z" fill="#B3749A"/>
<path d="M62.5619 99.006C62.4905 99.0006 62.421 98.9806 62.3577 98.9473C62.2944 98.914 62.2386 98.868 62.1937 98.8123C62.1038 98.7185 62.0535 98.5935 62.0535 98.4635C62.0535 98.3335 62.1038 98.2086 62.1937 98.1148C66.7856 93.9104 80.0769 88.6791 84.8819 88.1366C88.2337 87.7685 92.1281 85.2691 92.6319 83.1766C92.7057 82.85 92.6674 82.5081 92.5233 82.2059C92.3792 81.9037 92.1377 81.6587 91.8375 81.5104C88.6213 79.4179 75.33 82.266 70.9512 83.196H70.5056C66.2237 84.1066 58.5125 83.0604 51.7313 80.6579C44.95 78.2554 36.0569 81.2779 33.9838 83.6223C31.3294 86.6448 25.265 87.5941 15.9263 86.4704C15.8203 86.4589 15.7212 86.4128 15.6441 86.3392C15.5671 86.2657 15.5164 86.1688 15.5 86.0635C15.5236 85.9403 15.5922 85.8304 15.6925 85.7551C15.7929 85.6799 15.9177 85.6448 16.0425 85.6566C25.0519 86.7223 30.8256 85.8698 33.2475 83.1185C35.6694 80.3673 45.0469 77.306 52.0606 79.8829C58.6869 82.2273 66.185 83.2541 70.3119 82.3823L70.7575 82.2854C78.5075 80.6385 89.1831 78.6623 92.3606 80.7354C92.8309 80.9928 93.2034 81.398 93.4205 81.8882C93.6376 82.3785 93.6873 82.9266 93.5619 83.4479C92.9806 85.8891 88.7375 88.7179 84.9981 89.1441C80.4062 89.6479 67.2312 94.9566 62.8525 98.8316C62.7767 98.9193 62.6749 98.9804 62.5619 99.006Z" fill="#F2E8EE"/>
<path d="M21.7193 112.609C21.637 112.609 21.5559 112.588 21.4845 112.547C21.413 112.507 21.3536 112.447 21.3125 112.376C21.2822 112.322 21.2632 112.262 21.2565 112.2C21.2499 112.138 21.2558 112.075 21.2739 112.015C21.292 111.956 21.3218 111.9 21.3618 111.853C21.4017 111.805 21.4508 111.765 21.5062 111.737C27.6868 108.462 39.1762 104.316 43.7875 104.161C50.4077 104.557 56.9996 105.333 63.5306 106.486L69.3431 107.319C74.2062 107.939 90.6556 104.316 95.79 99.5693C100.924 94.8224 110.767 79.4387 111.464 76.8037C111.6 76.2418 111.464 76.0287 111.174 75.8931C110.05 75.1762 106.95 75.7574 104.799 77.5593C103.244 79.0635 101.776 80.6548 100.401 82.3256C96.2162 87.1693 90.5006 93.7956 85.8893 95.7912C79.205 98.6974 69.4593 94.9193 69.0525 94.7643C68.9338 94.7129 68.8395 94.6179 68.789 94.4988C68.7385 94.3798 68.7357 94.246 68.7812 94.1249C68.8046 94.0646 68.8399 94.0095 68.885 93.963C68.9301 93.9165 68.984 93.8796 69.0436 93.8543C69.1032 93.829 69.1673 93.8159 69.232 93.8158C69.2968 93.8157 69.3609 93.8286 69.4206 93.8537C69.5175 93.8537 79.1081 97.7287 85.5018 94.8999C89.9 92.9624 95.5574 86.4524 99.665 81.6862C101.067 79.9727 102.575 78.3485 104.179 76.8231C106.504 74.8856 109.992 74.0331 111.697 75.0793C112.011 75.2798 112.25 75.5786 112.376 75.9292C112.502 76.2797 112.509 76.6622 112.394 77.0168C111.639 79.8068 101.757 95.1712 96.4293 100.151C91.1012 105.13 74.3612 108.869 69.1881 108.211L63.3756 107.358C56.9086 106.216 50.3814 105.446 43.8262 105.052C39.4087 105.207 27.9193 109.354 21.9518 112.512C21.8873 112.569 21.8055 112.603 21.7193 112.609Z" fill="#F2E8EE"/>
<path d="M86.5093 95.4228C86.4328 95.4402 86.3533 95.4402 86.2768 95.4228C86.1669 95.3581 86.0869 95.2526 86.0542 95.1292C86.0216 95.0059 86.0389 94.8746 86.1025 94.764C87.3289 92.4612 88.1482 89.9639 88.5243 87.3821C88.5436 87.2554 88.6104 87.1408 88.7112 87.0616C88.812 86.9824 88.9392 86.9446 89.0668 86.9559C89.1306 86.9631 89.1924 86.9829 89.2484 87.0141C89.3045 87.0454 89.3538 87.0875 89.3935 87.138C89.4331 87.1884 89.4624 87.2463 89.4795 87.3082C89.4966 87.37 89.5012 87.4347 89.4931 87.4984C89.0952 90.2102 88.2299 92.8324 86.9356 95.2484C86.8846 95.3105 86.8189 95.359 86.7445 95.3895C86.6701 95.4199 86.5893 95.4314 86.5093 95.4228Z" fill="#F2E8EE"/>
<path d="M96.623 86.3951H96.4292C96.3141 86.3402 96.2241 86.2437 96.1774 86.125C96.1306 86.0063 96.1306 85.8744 96.1774 85.7557C99.5292 77.6957 96.9911 65.9545 96.6811 64.637C96.0999 62.1376 94.7436 59.3088 93.6005 58.8245C93.4392 58.7729 93.2667 58.7674 93.1024 58.8084C92.9381 58.8495 92.7886 58.9356 92.6705 59.057C91.1399 60.3357 91.3917 63.8232 91.6436 67.1945C91.6436 67.9307 91.7405 68.6863 91.7792 69.4226C91.8662 73.1621 91.4492 76.8963 90.5392 80.5245C90.5255 80.5869 90.4995 80.6461 90.4628 80.6985C90.4261 80.7508 90.3794 80.7954 90.3253 80.8297C90.2713 80.8639 90.211 80.8871 90.148 80.8979C90.0849 80.9087 90.0203 80.9069 89.958 80.8926C89.8955 80.8789 89.8364 80.8529 89.784 80.8162C89.7316 80.7794 89.687 80.7327 89.6528 80.6787C89.6186 80.6246 89.5954 80.5644 89.5846 80.5013C89.5738 80.4383 89.5756 80.3737 89.5899 80.3113C90.4884 76.7736 90.8991 73.1297 90.8105 69.4807C90.8105 68.7445 90.8105 68.0082 90.6749 67.2526C90.4036 63.4938 90.1324 59.9095 92.0505 58.3207C92.307 58.085 92.6224 57.9227 92.9634 57.8511C93.3043 57.7795 93.6583 57.8012 93.988 57.9138C95.9255 58.5532 97.2236 62.2538 97.708 64.3463C98.018 65.6832 100.614 77.7151 97.1461 86.0463C97.1147 86.1572 97.0447 86.2532 96.9488 86.3171C96.853 86.381 96.7374 86.4087 96.623 86.3951Z" fill="#F2E8EE"/>
<path d="M78.9332 96.876C78.8582 96.8745 78.7845 96.8564 78.7175 96.8229C78.6505 96.7894 78.5918 96.7413 78.5456 96.6822C78.5049 96.6324 78.4748 96.5746 78.4575 96.5126C78.4402 96.4506 78.436 96.3856 78.4451 96.3219C78.4542 96.2581 78.4765 96.1969 78.5104 96.1422C78.5444 96.0875 78.5894 96.0405 78.6425 96.0041C80.58 94.6091 81.3938 90.5016 81.6844 89.1647C81.7101 89.0388 81.7847 88.9283 81.8919 88.8574C81.9991 88.7866 82.1301 88.7612 82.256 88.7869C82.3819 88.8126 82.4924 88.8872 82.5632 88.9944C82.6341 89.1016 82.6595 89.2326 82.6338 89.3585C82.1106 91.8578 81.1806 95.326 79.2238 96.7791C79.1373 96.8368 79.0369 96.8702 78.9332 96.876Z" fill="#F2E8EE"/>
<path d="M83.3126 80.6786C83.1859 80.664 83.0694 80.6019 82.9867 80.5049C82.904 80.4078 82.8612 80.2829 82.867 80.1555C82.8274 78.0721 82.468 76.0072 81.8013 74.033C80.8713 70.5068 79.8638 66.8643 81.2782 64.0936C81.8013 63.0474 82.4213 62.5243 83.2157 62.5243C84.7657 62.5243 86.0638 64.9074 87.4782 67.7943C87.827 68.4918 88.1176 69.0924 88.3307 69.4218C89.9571 72.2266 90.912 75.3699 91.1207 78.6055C91.1209 78.67 91.1078 78.7338 91.082 78.7929C91.0562 78.852 91.0185 78.9051 90.9711 78.9488C90.9237 78.9925 90.8678 79.0259 90.8068 79.0469C90.7459 79.0678 90.6812 79.0759 90.617 79.0705C90.5533 79.068 90.4908 79.053 90.433 79.0263C90.3752 78.9997 90.3232 78.9618 90.28 78.9151C90.2368 78.8683 90.2033 78.8134 90.1813 78.7537C90.1593 78.6939 90.1494 78.6304 90.152 78.5668C89.9243 75.5329 89.0242 72.5877 87.517 69.9449C87.1824 69.387 86.8784 68.8114 86.6063 68.2205C85.7926 66.5736 84.2813 63.493 83.2157 63.493C82.8088 63.493 82.4407 64.0549 82.2082 64.5199C80.9876 66.9805 81.9176 70.4293 82.8088 73.7811C83.4897 75.8591 83.8554 78.0273 83.8938 80.2136C83.8893 80.2835 83.8702 80.3517 83.8379 80.4138C83.8055 80.476 83.7605 80.5307 83.7058 80.5744C83.6511 80.6182 83.5879 80.65 83.5202 80.668C83.4525 80.6859 83.3818 80.6896 83.3126 80.6786Z" fill="#F2E8EE"/>
<path d="M74.5356 82.5003C74.4054 82.4953 74.2822 82.44 74.1919 82.3461C74.1016 82.2521 74.0511 82.1269 74.0512 81.9966C74.0314 80.8874 73.895 79.7834 73.6444 78.7028C72.974 76.5119 72.974 74.1706 73.6444 71.9797C74.3806 70.4878 75.2331 70.2359 75.795 70.294C76.8994 70.294 77.7325 71.6697 78.0812 72.8128C78.4874 73.8528 78.9665 74.8628 79.515 75.8353C80.5185 77.3754 81.1793 79.1132 81.4525 80.9309C81.4478 80.9939 81.4302 81.0552 81.401 81.1112C81.3718 81.1672 81.3315 81.2166 81.2825 81.2565C81.2336 81.2964 81.177 81.3259 81.1163 81.3432C81.0556 81.3605 80.992 81.3653 80.9294 81.3572C80.8657 81.3523 80.8036 81.3349 80.7467 81.3059C80.6898 81.2769 80.6391 81.2369 80.5977 81.1883C80.5563 81.1397 80.5249 81.0834 80.5053 81.0226C80.4858 80.9618 80.4784 80.8977 80.4837 80.8341C80.0859 79.2224 79.4317 77.6851 78.5462 76.2809C77.9554 75.252 77.45 74.1763 77.035 73.0647C76.7637 72.0959 76.1244 71.3016 75.6012 71.2434C75.0781 71.1853 74.6131 71.9409 74.4 72.4059C73.8089 74.404 73.8089 76.5304 74.4 78.5284C74.6539 79.6741 74.7903 80.8426 74.8069 82.0159C74.8168 82.1147 74.796 82.2142 74.7475 82.3008C74.699 82.3875 74.625 82.4571 74.5356 82.5003Z" fill="#F2E8EE"/>
<path d="M76.5315 46.0362C73.1974 45.8952 70.0555 44.4367 67.7959 41.9809C65.5363 39.5252 64.3438 36.273 64.4803 32.9387C64.3596 29.6142 65.5591 26.377 67.8171 23.9339C70.075 21.4908 73.2078 20.0404 76.5315 19.8993C79.8569 20.0404 82.9916 21.4902 85.2526 23.9327C87.5137 26.3752 88.7176 29.6123 88.6021 32.9387C88.6697 34.5912 88.411 36.2409 87.8409 37.7936C87.2709 39.3462 86.4005 40.7713 85.2797 41.9875C84.1588 43.2038 82.8093 44.1873 81.3083 44.882C79.8073 45.5766 78.1841 45.9688 76.5315 46.0362ZM76.5315 20.9455C73.4786 21.0865 70.6041 22.424 68.5299 24.6686C66.4558 26.9131 65.349 29.8841 65.449 32.9387C65.3333 36.003 66.4332 38.989 68.5089 41.2462C70.5847 43.5034 73.4682 44.849 76.5315 44.9899C79.5983 44.8539 82.4867 43.5105 84.5666 41.2527C86.6465 38.995 87.749 36.0062 87.6334 32.9387C87.7333 29.8809 86.6238 26.9071 84.5456 24.662C82.4673 22.4169 79.5878 21.0816 76.5315 20.9455Z" fill="#F2E8EE"/>
<path d="M76.5312 48.7101C68.5294 48.7101 62 41.6769 62 32.9388C62 24.2007 68.51 17.2257 76.5119 17.2257C84.5138 17.2257 91.0625 24.3557 91.0625 32.9388C91.0625 41.5219 84.5525 48.7101 76.5312 48.7101ZM76.5312 18.2719C69.0719 18.2719 62.9688 24.8788 62.9688 33.0163C62.9688 41.1538 69.0525 47.7413 76.5312 47.7413C84.01 47.7413 90.0938 41.1344 90.0938 33.0163C90.0938 24.8982 84.01 18.2719 76.5312 18.2719Z" fill="#F2E8EE"/>
<path d="M78.0039 48.7672H76.8995C76.8359 48.7647 76.7734 48.7497 76.7155 48.723C76.6577 48.6964 76.6057 48.6586 76.5625 48.6118C76.5193 48.565 76.4858 48.5101 76.4638 48.4504C76.4419 48.3906 76.4319 48.3271 76.4345 48.2635C76.4343 48.199 76.4474 48.1352 76.4732 48.0761C76.499 48.017 76.5367 47.9639 76.5841 47.9202C76.6314 47.8764 76.6874 47.843 76.7484 47.8221C76.8093 47.8011 76.874 47.7931 76.9382 47.7985C78.9914 48.0347 81.0714 47.8303 83.0393 47.1989C85.0072 46.5674 86.8177 45.5234 88.3501 44.1366C90.9114 41.2144 92.2929 37.4431 92.2251 33.5578C91.8376 18.0578 77.9651 18.3291 77.3839 18.3291C77.132 18.3291 76.8995 18.1353 76.8801 17.8641C76.8716 17.7838 76.8825 17.7026 76.912 17.6274C76.9414 17.5522 76.9886 17.4852 77.0493 17.432C77.1101 17.3788 77.1828 17.341 77.2613 17.3218C77.3397 17.3026 77.4216 17.3025 77.5001 17.3216C81.6226 17.3455 85.5958 18.8673 88.6795 21.6035C90.2189 23.1647 91.425 25.0226 92.2243 27.0643C93.0237 29.106 93.3997 31.2889 93.3295 33.4803C93.4213 37.6442 91.9171 41.6855 89.1251 44.776C87.6402 46.1625 85.8881 47.2317 83.9759 47.9179C82.0637 48.6042 80.0316 48.8932 78.0039 48.7672Z" fill="#F2E8EE"/>
<path d="M92.5545 31.2531C92.4692 31.2553 92.3849 31.235 92.3101 31.1941C92.2352 31.1533 92.1725 31.0935 92.1282 31.0206C91.5637 30.7886 90.9554 30.6828 90.3457 30.7106C90.2172 30.7106 90.094 30.6596 90.0032 30.5688C89.9124 30.4779 89.8613 30.3547 89.8613 30.2263C89.8661 30.0993 89.9187 29.9789 90.0085 29.8891C90.0983 29.7992 90.2188 29.7467 90.3457 29.7419C91.0045 29.7419 92.5545 29.8388 92.9613 30.5363C93.0249 30.6469 93.0422 30.7781 93.0096 30.9015C92.9769 31.0248 92.8969 31.1303 92.7869 31.195C92.715 31.2321 92.6354 31.252 92.5545 31.2531Z" fill="#F2E8EE"/>
<path d="M91.6434 27.6098C91.5377 27.6166 91.4334 27.5818 91.3528 27.5129C90.7564 27.2047 90.0707 27.1156 89.4153 27.261C89.2871 27.2841 89.155 27.2567 89.0466 27.1844C88.9382 27.1122 88.8621 27.0007 88.8341 26.8735C88.8164 26.7483 88.8464 26.6211 88.9182 26.517C88.99 26.4129 89.0983 26.3396 89.2216 26.3117C90.1348 26.1167 91.088 26.2686 91.8953 26.7379C91.9841 26.8285 92.0338 26.9502 92.0338 27.077C92.0338 27.2038 91.9841 27.3255 91.8953 27.416C91.838 27.5094 91.7484 27.5784 91.6434 27.6098Z" fill="#F2E8EE"/>
</svg>
