<svg width="92" height="93" viewBox="0 0 92 93" fill="none" xmlns="http://www.w3.org/2000/svg">
<path d="M8.03749 38.0532C7.90356 38.0784 7.78265 38.1496 7.69565 38.2544C7.60865 38.3593 7.56104 38.4913 7.56104 38.6276C7.56104 38.7639 7.60865 38.8959 7.69565 39.0008C7.78265 39.1057 7.90356 39.1769 8.03749 39.2021C8.12193 39.218 8.20883 39.215 8.29201 39.1935C8.37519 39.172 8.4526 39.1324 8.51873 39.0775C8.58486 39.0227 8.63809 38.9539 8.67462 38.8762C8.71116 38.7984 8.7301 38.7135 8.7301 38.6276C8.7301 38.5417 8.71116 38.4568 8.67462 38.3791C8.63809 38.3013 8.58486 38.2325 8.51873 38.1777C8.4526 38.1228 8.37519 38.0832 8.29201 38.0617C8.20883 38.0402 8.12193 38.0373 8.03749 38.0532Z" fill="#B3749A"/>
<path d="M81.3258 85.1989C81.2471 85.2039 81.1703 85.2248 81.0999 85.2602C81.0294 85.2957 80.9669 85.345 80.9161 85.4053C80.8653 85.4656 80.8271 85.5355 80.804 85.6108C80.7809 85.6862 80.7733 85.7655 80.7816 85.8439C80.7816 85.9936 80.841 86.1371 80.9469 86.243C81.0527 86.3488 81.1963 86.4083 81.346 86.4083C81.4208 86.4111 81.4955 86.3984 81.5652 86.3711C81.635 86.3437 81.6983 86.3022 81.7513 86.2493C81.8043 86.1963 81.8458 86.1329 81.8731 86.0632C81.9005 85.9934 81.9132 85.9188 81.9103 85.8439C81.9223 85.7616 81.9159 85.6776 81.8917 85.5981C81.8674 85.5185 81.8259 85.4453 81.77 85.3837C81.7142 85.322 81.6454 85.2735 81.5686 85.2416C81.4918 85.2096 81.4089 85.1951 81.3258 85.1989Z" fill="#B3749A"/>
<path d="M89.207 50.8118C89.4748 50.8687 89.7164 51.012 89.8948 51.2195C90.0732 51.4271 90.1786 51.6875 90.1947 51.9607C90.2512 51.6772 90.3681 51.4091 90.5373 51.1746C90.7455 50.9914 90.9942 50.8602 91.263 50.7917C91.0358 50.7255 90.8237 50.616 90.6381 50.4692C90.4152 50.1814 90.2695 49.8414 90.2148 49.4815C90.165 49.8684 90.0039 50.2325 89.7513 50.5296C89.5935 50.6636 89.4074 50.7601 89.207 50.8118Z" fill="#B3749A"/>
<path d="M7.59375 59.9834C7.83549 60.0491 8.05713 60.1738 8.23875 60.3463C8.41627 60.5759 8.534 60.846 8.58141 61.1324C8.63792 60.8488 8.75478 60.5807 8.92406 60.3463C9.12727 60.167 9.36847 60.036 9.62953 59.9633C9.41104 59.8911 9.20652 59.782 9.02484 59.6408C8.80259 59.345 8.65716 58.9987 8.60156 58.633C8.56778 58.9975 8.43539 59.3459 8.21859 59.6408C8.03698 59.798 7.82398 59.9148 7.59375 59.9834Z" fill="#B3749A"/>
<path d="M85.3367 42.0456C85.2619 42.0428 85.1872 42.0555 85.1175 42.0828C85.0477 42.1102 84.9844 42.1517 84.9314 42.2047C84.8784 42.2576 84.8369 42.321 84.8096 42.3907C84.7822 42.4605 84.7695 42.5351 84.7724 42.61C84.7724 42.7597 84.8318 42.9033 84.9377 43.0091C85.0435 43.1149 85.1871 43.1744 85.3367 43.1744C85.4848 43.1694 85.6255 43.1083 85.7302 43.0035C85.835 42.8988 85.8961 42.7581 85.9011 42.61C85.9011 42.4603 85.8416 42.3168 85.7358 42.2109C85.63 42.1051 85.4864 42.0456 85.3367 42.0456Z" fill="#F2E8EE"/>
<path d="M14.1049 9.25017C13.9568 9.25519 13.8162 9.31627 13.7114 9.42104C13.6066 9.52581 13.5456 9.66646 13.5405 9.81454C13.5405 9.96423 13.6 10.1078 13.7058 10.2136C13.8117 10.3195 13.9552 10.3789 14.1049 10.3789C14.1798 10.3817 14.2544 10.3691 14.3242 10.3417C14.3939 10.3144 14.4573 10.2729 14.5103 10.2199C14.5632 10.1669 14.6047 10.1036 14.6321 10.0338C14.6594 9.96407 14.6721 9.88942 14.6693 9.81454C14.6693 9.74043 14.6547 9.66704 14.6263 9.59856C14.598 9.53009 14.5564 9.46788 14.504 9.41547C14.4516 9.36306 14.3894 9.32149 14.3209 9.29313C14.2524 9.26477 14.179 9.25017 14.1049 9.25017Z" fill="#F2E8EE"/>
<path d="M83.2202 32.0464C83.7156 32.1984 84.1703 32.4602 84.5505 32.8123C84.918 33.2764 85.167 33.8229 85.2762 34.4046C85.3166 33.8216 85.5509 33.2688 85.9417 32.8342C86.3325 32.3995 86.8574 32.1081 87.4329 32.006C86.9681 31.8747 86.5357 31.6482 86.163 31.3409C85.7106 30.7518 85.4126 30.0589 85.2963 29.3253C85.1908 30.1012 84.8616 30.8296 84.349 31.4215C84.018 31.7028 83.6343 31.9152 83.2202 32.0464Z" fill="#B3749A"/>
<path d="M0.15625 49.8866C0.463216 49.9767 0.745766 50.1352 0.982656 50.3502C1.2158 50.644 1.3748 50.9897 1.44625 51.358C1.49537 50.9965 1.64167 50.6552 1.86953 50.3703C2.12836 50.123 2.44839 49.9491 2.79672 49.8664C2.50483 49.7746 2.23176 49.6313 1.99047 49.4431C1.70809 49.0706 1.52125 48.6347 1.44625 48.1733C1.38778 48.671 1.18454 49.1405 0.86172 49.5238C0.652919 49.6902 0.413118 49.8136 0.15625 49.8866Z" fill="#B3749A"/>
<path d="M72.2149 33.3176C72.0709 33.3166 71.9332 33.2586 71.8319 33.1564C71.7383 33.0588 71.686 32.9288 71.686 32.7935C71.686 32.6583 71.7383 32.5283 71.8319 32.4307L76.9315 27.8553C77.029 27.7616 77.159 27.7094 77.2943 27.7094C77.4295 27.7094 77.5595 27.7616 77.6571 27.8553C77.7494 27.9495 77.8011 28.0761 77.8011 28.208C77.8011 28.3399 77.7494 28.4665 77.6571 28.5607L72.5576 33.1362C72.5169 33.1894 72.4653 33.2331 72.4061 33.2644C72.347 33.2958 72.2817 33.3139 72.2149 33.3176Z" fill="#B3749A"/>
<path d="M68.7882 31.2607H68.5866C68.5248 31.2327 68.4693 31.1924 68.4235 31.1424C68.3776 31.0924 68.3423 31.0336 68.3197 30.9696C68.2972 30.9056 68.2877 30.8377 68.292 30.77C68.2963 30.7022 68.3143 30.6361 68.3448 30.5754L69.6952 27.5923C69.7215 27.5313 69.7596 27.4761 69.8074 27.4298C69.8551 27.3836 69.9115 27.3473 69.9733 27.3229C70.0351 27.2985 70.1011 27.2867 70.1676 27.2879C70.234 27.2892 70.2995 27.3036 70.3604 27.3303C70.4802 27.3874 70.5738 27.4878 70.6224 27.6112C70.6711 27.7347 70.6711 27.872 70.6224 27.9954L69.2518 30.9987C69.2067 31.0813 69.1394 31.1497 69.0574 31.196C68.9755 31.2423 68.8822 31.2647 68.7882 31.2607Z" fill="#B3749A"/>
<path d="M65.644 30.1731C65.5136 30.1531 65.3962 30.0829 65.3171 29.9773C65.238 29.8718 65.2033 29.7395 65.2207 29.6087L66.1882 23.5619C66.1913 23.4907 66.2094 23.421 66.2414 23.3574C66.2733 23.2938 66.3184 23.2377 66.3737 23.1927C66.4289 23.1478 66.493 23.1151 66.5618 23.0967C66.6306 23.0784 66.7025 23.0748 66.7728 23.0863C66.8431 23.0978 66.9101 23.124 66.9695 23.1633C67.0289 23.2026 67.0793 23.254 67.1174 23.3142C67.1555 23.3743 67.1804 23.4419 67.1905 23.5124C67.2005 23.5829 67.1956 23.6547 67.1758 23.7231L66.2285 29.77C66.1994 29.8983 66.1232 30.0109 66.0149 30.0856C65.9066 30.1603 65.7742 30.1915 65.644 30.1731Z" fill="#B3749A"/>
<path d="M28.5364 52.2034C24.8881 52.2034 22.3282 51.5382 21.905 49.966C21.3809 47.9504 24.6462 45.6929 27.4681 44.1812C32.1984 41.8081 37.1726 39.9563 42.3031 38.6584C52.8851 35.8163 64.6564 34.7279 65.6037 38.2754C66.5511 41.8431 55.8078 46.7612 45.2257 49.5831C39.7877 51.1218 34.1844 52.0016 28.5364 52.2034ZM59.0529 37.0459C53.4447 37.2177 47.8794 38.0843 42.4845 39.6259C37.4297 40.9023 32.5296 42.7272 27.8712 45.0681C23.84 47.2449 22.5903 48.8776 22.812 49.704C23.3764 51.7196 32.5878 51.901 44.8831 48.6156C57.1784 45.3301 65.0393 40.674 64.5556 38.5374C64.3742 37.5901 62.3384 37.0459 59.0529 37.0459Z" fill="#F2E8EE"/>
<path d="M28.0528 55.3078C22.0059 55.3078 17.8134 53.9976 17.1281 51.4176C15.8784 46.7615 26.6217 39.9689 41.5776 35.9779C47.848 34.2078 54.3315 33.3058 60.847 33.2972C66.4303 33.4786 69.8568 34.8492 70.4817 37.1672C71.1065 39.4851 68.8289 42.3876 64.072 45.2297C58.3942 48.4942 52.2884 50.9501 45.9314 52.5262C40.1112 54.1957 34.105 55.1301 28.0528 55.3078ZM59.6376 34.305C53.6181 34.4396 47.639 35.3266 41.8397 36.9454C26.4604 40.9767 17.1482 47.6081 18.0956 51.1757C19.0429 54.7434 30.3909 55.7512 45.7701 51.5789C51.9971 50.0237 57.9747 47.6014 63.5278 44.3831C67.8211 41.7426 69.9979 39.1828 69.5747 37.3486C69.0909 35.5143 65.9264 34.3856 60.9075 34.2243L59.6376 34.305Z" fill="#F2E8EE"/>
<path d="M29.5638 59.641C25.8169 59.8898 22.0751 59.087 18.76 57.323L18.5988 57.2222L17.1274 51.4979C17.1115 51.433 17.1086 51.3657 17.1187 51.2997C17.1288 51.2337 17.1519 51.1703 17.1865 51.1132C17.2211 51.0562 17.2667 51.0065 17.3205 50.967C17.3743 50.9275 17.4354 50.899 17.5003 50.8831C17.5651 50.8672 17.6325 50.8643 17.6985 50.8744C17.7645 50.8846 17.8278 50.9076 17.8849 50.9422C17.942 50.9768 17.9917 51.0224 18.0312 51.0762C18.0707 51.13 18.0992 51.1911 18.115 51.256L19.4857 56.5974C27.2257 61.4551 48.3293 56.0129 48.551 55.9726C66.0668 51.3971 70.36 44.8463 70.9244 43.8788L69.3724 37.2272C69.3575 37.1624 69.3557 37.0952 69.3669 37.0296C69.3781 36.964 69.4023 36.9013 69.4379 36.8451C69.4735 36.7889 69.5199 36.7403 69.5743 36.7021C69.6288 36.6639 69.6904 36.6368 69.7554 36.6226C69.8203 36.6047 69.8883 36.6006 69.955 36.6106C70.0216 36.6205 70.0855 36.6443 70.1424 36.6803C70.1993 36.7164 70.2481 36.7639 70.2856 36.8199C70.323 36.8759 70.3484 36.9391 70.36 37.0055L71.9927 43.9997V44.161C71.8516 44.4633 68.4049 51.9413 48.8735 57.0207C42.5538 58.6066 36.0775 59.4854 29.5638 59.641Z" fill="#F2E8EE"/>
<path d="M69.3521 46.9836C69.2463 46.982 69.1435 46.9484 69.0571 46.8873C68.9708 46.8261 68.905 46.7402 68.8684 46.641L67.3566 42.0252C67.3176 41.8968 67.3293 41.7584 67.3893 41.6384C67.4493 41.5184 67.553 41.426 67.6791 41.3802C67.7426 41.3582 67.8099 41.3491 67.8769 41.3534C67.944 41.3578 68.0095 41.3755 68.0696 41.4056C68.1297 41.4356 68.1831 41.4774 68.2269 41.5284C68.2706 41.5794 68.3037 41.6387 68.3241 41.7027L69.8359 46.3386C69.8741 46.4643 69.8619 46.5999 69.8016 46.7166C69.7414 46.8333 69.6379 46.9219 69.5134 46.9635L69.3521 46.9836Z" fill="#F2E8EE"/>
<path d="M23.397 58.9971C23.3105 59.0025 23.2244 58.9825 23.1491 58.9395C23.0739 58.8965 23.0129 58.8324 22.9737 58.7552C22.4175 57.3651 22.1435 55.8783 22.1675 54.3813C22.1674 54.251 22.2177 54.1258 22.3079 54.0319C22.398 53.938 22.5211 53.8826 22.6512 53.8774C22.7833 53.8824 22.9086 53.937 23.002 54.0305C23.0954 54.1239 23.1501 54.2492 23.1551 54.3813C23.1262 55.6937 23.345 56.9998 23.8001 58.2311C23.8691 58.3469 23.8908 58.4848 23.8608 58.6161C23.8308 58.7475 23.7513 58.8623 23.6389 58.9366C23.5631 58.9728 23.4809 58.9934 23.397 58.9971Z" fill="#F2E8EE"/>
<path d="M26.5408 59.4401C26.4425 59.4404 26.3462 59.412 26.2638 59.3582C26.1814 59.3045 26.1166 59.2279 26.0772 59.1377C25.609 57.728 25.3178 56.2655 25.2105 54.784C25.2045 54.6514 25.249 54.5215 25.3351 54.4205C25.4211 54.3195 25.5423 54.2549 25.6741 54.2397C25.7408 54.2313 25.8086 54.2369 25.8731 54.2561C25.9376 54.2753 25.9973 54.3078 26.0485 54.3514C26.0997 54.395 26.1413 54.4489 26.1705 54.5095C26.1998 54.5701 26.216 54.6361 26.2183 54.7033C26.3076 56.0734 26.5649 57.4273 26.9842 58.7346C27.0147 58.7952 27.0327 58.8614 27.037 58.9291C27.0413 58.9969 27.0319 59.0648 27.0093 59.1288C26.9867 59.1928 26.9514 59.2515 26.9055 59.3016C26.8597 59.3516 26.8042 59.3918 26.7424 59.4199L26.5408 59.4401Z" fill="#F2E8EE"/>
<path d="M29.8664 59.6421C29.7674 59.6451 29.67 59.6178 29.5871 59.5637C29.5042 59.5097 29.4398 59.4315 29.4028 59.3397C28.8079 57.929 28.493 56.4161 28.4756 54.8852C28.4756 54.7515 28.5287 54.6234 28.6232 54.5289C28.7177 54.4344 28.8458 54.3813 28.9795 54.3813C29.1131 54.3813 29.2413 54.4344 29.3358 54.5289C29.4303 54.6234 29.4834 54.7515 29.4834 54.8852C29.5191 56.2691 29.8059 57.635 30.33 58.9164C30.3594 58.9754 30.376 59.0399 30.3785 59.1057C30.3811 59.1715 30.3696 59.2371 30.3448 59.2982C30.32 59.3592 30.2825 59.4143 30.2347 59.4596C30.187 59.505 30.1301 59.5397 30.0679 59.5614C30.0105 59.6082 29.9402 59.6364 29.8664 59.6421Z" fill="#F2E8EE"/>
<path d="M35.2079 25.5168H13.4189L20.9775 2.31692L25.0088 8.56536C27.7299 6.79161 42.4641 -2.19808 56.3921 1.47036C64.4546 3.60692 70.8844 9.53286 75.4397 19.1071L76.3871 21.3444L74.5529 19.7521C74.3513 19.5707 53.5904 1.81301 32.4061 19.3893L35.2079 25.5168ZM14.8097 24.5089H33.6357L31.1564 19.0668L31.4588 18.8249C49.7808 3.32473 67.8811 13.6649 73.4644 17.6155C69.1308 9.55301 63.3863 4.3527 56.0696 2.45801C41.1943 -1.57324 25.2305 9.57317 25.0693 9.67395L24.646 9.9763L21.2799 4.65504L14.8097 24.5089Z" fill="#F2E8EE"/>
<path d="M39.663 92.2356C37.3108 92.2456 34.9671 91.9543 32.6889 91.3689C24.6264 89.2323 18.1966 83.3064 13.6413 73.7322L12.6133 71.5352L14.4475 73.1275C14.6491 73.3089 35.41 91.0666 56.5942 73.4903L53.7925 67.3023H75.5814L68.0228 90.5223L63.9916 84.2739C61.8147 85.8461 51.2125 92.2356 39.663 92.2356ZM15.4755 75.2238C19.8091 83.387 25.6544 88.4866 32.8703 90.3813C47.7658 94.2916 63.7094 83.2661 63.8706 83.1653L64.3141 82.863L67.66 88.1842L74.1302 68.3102H55.3647L57.8439 73.7523L57.5416 73.9942C39.2195 89.5145 21.1192 79.1744 15.5359 75.2238H15.4755Z" fill="#F2E8EE"/>
</svg>
