<svg width="25" height="24" viewBox="0 0 25 24" fill="none" xmlns="http://www.w3.org/2000/svg">
<g clip-path="url(#clip0_0_30659)">
<path d="M6.955 19L2.5 22.5V4C2.5 3.73478 2.60536 3.48043 2.79289 3.29289C2.98043 3.10536 3.23478 3 3.5 3H21.5C21.7652 3 22.0196 3.10536 22.2071 3.29289C22.3946 3.48043 22.5 3.73478 22.5 4V18C22.5 18.2652 22.3946 18.5196 22.2071 18.7071C22.0196 18.8946 21.7652 19 21.5 19H6.955ZM4.5 18.385L6.263 17H20.5V5H4.5V18.385ZM12.518 14.7L9.159 11.34C8.73704 10.918 8.49999 10.3457 8.49999 9.749C8.49999 9.45352 8.55818 9.16094 8.67126 8.88796C8.78433 8.61497 8.95007 8.36693 9.159 8.158C9.36793 7.94907 9.61597 7.78333 9.88896 7.67026C10.1619 7.55718 10.4545 7.49899 10.75 7.49899C11.3467 7.49899 11.919 7.73604 12.341 8.158L12.518 8.335L12.695 8.158C12.9039 7.94907 13.152 7.78333 13.425 7.67026C13.6979 7.55718 13.9905 7.49899 14.286 7.49899C14.5815 7.49899 14.8741 7.55718 15.147 7.67026C15.42 7.78333 15.6681 7.94907 15.877 8.158C16.0859 8.36693 16.2517 8.61497 16.3647 8.88796C16.4778 9.16094 16.536 9.45352 16.536 9.749C16.536 10.0445 16.4778 10.3371 16.3647 10.61C16.2517 10.883 16.0859 11.1311 15.877 11.34L12.517 14.699L12.518 14.7Z" fill="#ABACB5"/>
</g>
<defs>
<clipPath id="clip0_0_30659">
<rect width="24" height="24" fill="white" transform="translate(0.5)"/>
</clipPath>
</defs>
</svg>
