<svg width="30" height="30" viewBox="0 0 30 30" fill="none" xmlns="http://www.w3.org/2000/svg">
<g clip-path="url(#clip0_0_31835)">
<path d="M2.50001 15C2.50001 8.09625 8.09626 2.5 15 2.5C21.9038 2.5 27.5 8.09625 27.5 15C27.5 21.9037 21.9038 27.5 15 27.5H2.50001L6.16126 23.8387C4.99881 22.6793 4.07693 21.3016 3.44861 19.7847C2.82029 18.2679 2.49792 16.6418 2.50001 15ZM8.53501 25H15C16.9778 25 18.9112 24.4135 20.5557 23.3147C22.2002 22.2159 23.4819 20.6541 24.2388 18.8268C24.9957 16.9996 25.1937 14.9889 24.8079 13.0491C24.422 11.1093 23.4696 9.32746 22.0711 7.92893C20.6726 6.53041 18.8907 5.578 16.9509 5.19215C15.0111 4.8063 13.0004 5.00433 11.1732 5.7612C9.34591 6.51808 7.78413 7.79981 6.68531 9.4443C5.5865 11.0888 5.00001 13.0222 5.00001 15C5.00001 17.69 6.06376 20.2062 7.92876 22.0712L9.69626 23.8387L8.53501 25ZM10 16.25H20C20 17.5761 19.4732 18.8479 18.5355 19.7855C17.5979 20.7232 16.3261 21.25 15 21.25C13.6739 21.25 12.4022 20.7232 11.4645 19.7855C10.5268 18.8479 10 17.5761 10 16.25Z" fill="#EAEAEC"/>
</g>
<defs>
<clipPath id="clip0_0_31835">
<rect width="30" height="30" fill="white"/>
</clipPath>
</defs>
</svg>
