<svg width="30" height="30" viewBox="0 0 30 30" fill="none" xmlns="http://www.w3.org/2000/svg">
<g clip-path="url(#clip0_0_31849)">
<path d="M25 2.5C25.9946 2.5 26.9484 2.89509 27.6517 3.59835C28.3549 4.30161 28.75 5.25544 28.75 6.25V8.75H26.25V23.75C26.25 24.7446 25.8549 25.6984 25.1517 26.4017C24.4484 27.1049 23.4946 27.5 22.5 27.5H5C4.00544 27.5 3.05161 27.1049 2.34835 26.4017C1.64509 25.6984 1.25 24.7446 1.25 23.75V21.25H21.25V23.75C21.25 24.0562 21.3624 24.3517 21.5659 24.5805C21.7693 24.8093 22.0497 24.9554 22.3537 24.9912L22.5 25C22.8062 25 23.1017 24.8876 23.3305 24.6841C23.5593 24.4807 23.7054 24.2003 23.7412 23.8963L23.75 23.75V5H7.5C7.19383 5.00004 6.89833 5.11244 6.66954 5.31589C6.44074 5.51934 6.29457 5.79969 6.25875 6.10375L6.25 6.25V18.75H3.75V6.25C3.75 5.25544 4.14509 4.30161 4.84835 3.59835C5.55161 2.89509 6.50544 2.5 7.5 2.5H25Z" fill="#EAEAEC"/>
</g>
<defs>
<clipPath id="clip0_0_31849">
<rect width="30" height="30" fill="white"/>
</clipPath>
</defs>
</svg>
