<svg width="25" height="24" viewBox="0 0 25 24" fill="none" xmlns="http://www.w3.org/2000/svg">
<path d="M9.73 17.59V23.12H7.38V6.72C7.38 5.27 7.81 4.13 8.66 3.28C9.5 2.43 10.67 2 12.11 2C13.5 2 14.57 2.34 15.37 3C16.16 3.68 16.55 4.62 16.55 5.81C16.55 6.63 16.29 7.4 15.77 8.11C15.25 8.82 14.58 9.31 13.75 9.58V9.62C15 9.82 15.97 10.27 16.63 11C17.29 11.71 17.62 12.62 17.62 13.74C17.62 15.06 17.16 16.14 16.25 16.97C15.33 17.8 14.13 18.21 12.63 18.21C11.57 18.21 10.6 18 9.73 17.59ZM11.22 10.75V8.83C12.09 8.72 12.8 8.4 13.37 7.86C13.93 7.31 14.21 6.7 14.21 6C14.21 4.62 13.5 3.92 12.1 3.92C11.34 3.92 10.75 4.16 10.34 4.65C9.93 5.14 9.73 5.82 9.73 6.71V15.5C10.64 16.03 11.53 16.29 12.39 16.29C13.23 16.29 13.89 16.07 14.36 15.64C14.83 15.2 15.06 14.58 15.06 13.79C15.06 12 13.78 11 11.22 10.75Z" fill="#ABACB5"/>
</svg>
