<svg width="25" height="24" viewBox="0 0 25 24" fill="none" xmlns="http://www.w3.org/2000/svg">
<g clip-path="url(#clip0_0_30649)">
<path d="M5.5 18H19.5V11.031C19.5 7.148 16.366 4 12.5 4C8.634 4 5.5 7.148 5.5 11.031V18ZM12.5 2C17.47 2 21.5 6.043 21.5 11.031V20H3.5V11.031C3.5 6.043 7.53 2 12.5 2ZM10 21H15C15 21.663 14.7366 22.2989 14.2678 22.7678C13.7989 23.2366 13.163 23.5 12.5 23.5C11.837 23.5 11.2011 23.2366 10.7322 22.7678C10.2634 22.2989 10 21.663 10 21Z" fill="#ABACB5"/>
</g>
<defs>
<clipPath id="clip0_0_30649">
<rect width="24" height="24" fill="white" transform="translate(0.5)"/>
</clipPath>
</defs>
</svg>
