<svg width="25" height="24" viewBox="0 0 25 24" fill="none" xmlns="http://www.w3.org/2000/svg">
<g clip-path="url(#clip0_0_30674)">
<path d="M13.62 17.023L9.42101 14.733C8.8728 15.3191 8.16099 15.7267 7.37808 15.9029C6.59517 16.0791 5.77736 16.0157 5.03093 15.7211C4.2845 15.4264 3.64397 14.914 3.19258 14.2505C2.74118 13.587 2.4998 12.803 2.4998 12.0005C2.4998 11.198 2.74118 10.4141 3.19258 9.75058C3.64397 9.08707 4.2845 8.57467 5.03093 8.27998C5.77736 7.98529 6.59517 7.92193 7.37808 8.09813C8.16099 8.27434 8.8728 8.68196 9.42101 9.26802L13.621 6.97802C13.3826 6.03409 13.4966 5.03561 13.9416 4.16972C14.3867 3.30384 15.1323 2.63 16.0387 2.27452C16.945 1.91904 17.9499 1.90633 18.865 2.23875C19.7801 2.57118 20.5425 3.22594 21.0093 4.08028C21.4762 4.93463 21.6154 5.92991 21.4009 6.87957C21.1864 7.82922 20.633 8.66806 19.8442 9.23883C19.0555 9.8096 18.0857 10.0731 17.1166 9.98001C16.1475 9.8869 15.2456 9.44353 14.58 8.73302L10.38 11.023C10.5412 11.6644 10.5412 12.3357 10.38 12.977L14.579 15.267C15.2446 14.5565 16.1465 14.1131 17.1156 14.02C18.0847 13.9269 19.0545 14.1904 19.8432 14.7612C20.632 15.332 21.1854 16.1708 21.3999 17.1205C21.6144 18.0701 21.4752 19.0654 21.0083 19.9198C20.5415 20.7741 19.7791 21.4289 18.864 21.7613C17.9489 22.0937 16.944 22.081 16.0377 21.7255C15.1313 21.37 14.3857 20.6962 13.9406 19.8303C13.4956 18.9644 13.3816 17.9659 13.62 17.022V17.023ZM6.50001 14C7.03044 14 7.53915 13.7893 7.91422 13.4142C8.28929 13.0392 8.50001 12.5305 8.50001 12C8.50001 11.4696 8.28929 10.9609 7.91422 10.5858C7.53915 10.2107 7.03044 10 6.50001 10C5.96957 10 5.46087 10.2107 5.08579 10.5858C4.71072 10.9609 4.50001 11.4696 4.50001 12C4.50001 12.5305 4.71072 13.0392 5.08579 13.4142C5.46087 13.7893 5.96957 14 6.50001 14ZM17.5 8.00002C18.0304 8.00002 18.5391 7.78931 18.9142 7.41423C19.2893 7.03916 19.5 6.53045 19.5 6.00002C19.5 5.46959 19.2893 4.96088 18.9142 4.58581C18.5391 4.21073 18.0304 4.00002 17.5 4.00002C16.9696 4.00002 16.4609 4.21073 16.0858 4.58581C15.7107 4.96088 15.5 5.46959 15.5 6.00002C15.5 6.53045 15.7107 7.03916 16.0858 7.41423C16.4609 7.78931 16.9696 8.00002 17.5 8.00002ZM17.5 20C18.0304 20 18.5391 19.7893 18.9142 19.4142C19.2893 19.0392 19.5 18.5305 19.5 18C19.5 17.4696 19.2893 16.9609 18.9142 16.5858C18.5391 16.2107 18.0304 16 17.5 16C16.9696 16 16.4609 16.2107 16.0858 16.5858C15.7107 16.9609 15.5 17.4696 15.5 18C15.5 18.5305 15.7107 19.0392 16.0858 19.4142C16.4609 19.7893 16.9696 20 17.5 20Z" fill="#ABACB5"/>
</g>
<defs>
<clipPath id="clip0_0_30674">
<rect width="24" height="24" fill="white" transform="translate(0.5)"/>
</clipPath>
</defs>
</svg>
