<svg width="20" height="20" viewBox="0 0 20 20" fill="none" xmlns="http://www.w3.org/2000/svg">
<g clip-path="url(#clip0_0_21527)">
<path d="M4.16667 3.83665V11.4908C4.16668 12.0395 4.30215 12.5798 4.56105 13.0636C4.81996 13.5473 5.19429 13.9597 5.65083 14.2641L10 17.1641L14.3492 14.2641C14.8056 13.9598 15.1799 13.5476 15.4388 13.0639C15.6977 12.5803 15.8332 12.0402 15.8333 11.4916V3.83665L10 2.54165L4.16667 3.83665ZM3.1525 2.35498L10 0.833313L16.8475 2.35498C17.0326 2.39612 17.198 2.49912 17.3167 2.64698C17.4353 2.79485 17.5 2.97874 17.5 3.16831V11.4908C17.4999 12.3139 17.2967 13.1243 16.9082 13.85C16.5198 14.5757 15.9582 15.1943 15.2733 15.6508L10 19.1666L4.72667 15.6508C4.04189 15.1943 3.48038 14.5759 3.09196 13.8504C2.70353 13.1248 2.5002 12.3146 2.5 11.4916V3.16831C2.50003 2.97874 2.5647 2.79485 2.68332 2.64698C2.80195 2.49912 2.96745 2.39612 3.1525 2.35498ZM10 11.25L7.55083 12.5375L8.01833 9.81081L6.0375 7.87915L8.77583 7.48081L10 4.99998L11.225 7.48081L13.9625 7.87915L11.9817 9.81081L12.4483 12.5375L10 11.25Z" fill="white"/>
</g>
<defs>
<clipPath id="clip0_0_21527">
<rect width="20" height="20" fill="white"/>
</clipPath>
</defs>
</svg>
